<svg width="30" height="30" xmlns="http://www.w3.org/2000/svg" xmlns:undefined="http://www.bohemiancoding.com/sketch/ns" version="1.1">
 <g>
  <title>Icon</title>
  <g id="svg_1"  fill-rule="evenodd" fill="none">
   <path id="svg_2"  fill="#5065A8" d="m15.87033,29.23598c-0.30641,0.89982 -1.35784,0.90623 -1.72006,0.13512c-0.04532,-0.10161 -0.07308,-0.18781 -0.09241,-0.28161l-4.71174,-22.86088l-2.31237,13.16428c-0.0897,0.51025 -0.47992,0.87714 -0.93292,0.87714l-5.07609,0c-0.52565,0 -0.95177,-0.48968 -0.95177,-1.09371c0,-0.60405 0.42612,-1.09371 0.95177,-1.09371l4.3187,0l2.99705,-17.16908c0.20213,-1.14983 1.6238,-1.17696 1.85906,-0.03549l5.00865,24.30142l4.60011,-13.5108c0.29882,-0.87753 1.35904,-0.93901 1.73324,-0.10053l2.90461,6.5087l4.49715,0.00579c0.52565,0 0.95177,0.48966 0.95177,1.09371c0,0.60403 -0.42612,1.09371 -0.95177,1.09371l-5.07609,0c-0.35701,0 -0.68399,-0.22959 -0.84691,-0.59464l-2.20503,-4.94107l-4.94491,14.50165z"/>
  </g>
 </g>
</svg>