<svg width="450" height="79.1" xmlns="http://www.w3.org/2000/svg">
    <style>
        @media (prefers-color-scheme: dark) {
            g {
                fill: #fff !important;
                stroke: #fff !important;
            }

            html[data-color-mode="dark"] g {
                fill: #fff !important;
                stroke: #fff !important;
            }
        }
    </style>
    <g id="svgGroup" stroke-linecap="round" fill-rule="evenodd" font-size="9pt" stroke="#000" stroke-width="0.25mm"
        fill="black" style="stroke:#000;stroke-width:0.25mm;fill:black">
        <path
            d="M 262.8 74.3 L 235.5 74.3 L 235.5 2 L 260.45 2 A 63.174 63.174 0 0 1 265.483 2.19 Q 269.434 2.506 272.575 3.35 Q 277.146 4.578 280.228 6.758 A 16.966 16.966 0 0 1 280.825 7.2 A 15.258 15.258 0 0 1 284.692 11.541 A 14.554 14.554 0 0 1 285.55 13.25 A 18.904 18.904 0 0 1 286.873 18.297 A 23.89 23.89 0 0 1 287.05 21.25 Q 287.05 23.8 286.3 26.125 Q 285.55 28.45 283.975 30.475 A 16.249 16.249 0 0 1 281.542 32.971 A 20.072 20.072 0 0 1 279.975 34.15 A 21.272 21.272 0 0 1 277.046 35.805 A 28.33 28.33 0 0 1 274.2 36.95 A 28.03 28.03 0 0 1 280.499 39.102 Q 288.653 43.141 289.077 52.057 A 20.9 20.9 0 0 1 289.1 53.05 A 21.184 21.184 0 0 1 288.196 59.301 A 19.387 19.387 0 0 1 287.35 61.55 Q 285.6 65.45 282.25 68.275 A 22.213 22.213 0 0 1 277.491 71.312 A 28.745 28.745 0 0 1 274 72.7 A 31.311 31.311 0 0 1 268.399 73.948 A 42.526 42.526 0 0 1 262.8 74.3 Z M 427.55 74.3 L 420 74.3 A 3.874 3.874 0 0 1 418.735 74.107 Q 417.38 73.641 416.85 72.05 L 415.85 67.1 A 30.828 30.828 0 0 1 412.718 70.167 A 28.411 28.411 0 0 1 412.5 70.35 Q 410.75 71.8 408.725 72.85 Q 406.7 73.9 404.375 74.475 A 19.744 19.744 0 0 1 401.001 74.994 A 23.787 23.787 0 0 1 399.35 75.05 Q 395.15 75.05 391.65 73.3 A 17.022 17.022 0 0 1 385.955 68.647 A 19.86 19.86 0 0 1 385.625 68.225 A 21.343 21.343 0 0 1 383.163 64.019 A 29.001 29.001 0 0 1 381.725 60 A 35.388 35.388 0 0 1 380.694 54.75 Q 380.371 52.125 380.351 49.192 A 57.132 57.132 0 0 1 380.35 48.8 A 36.945 36.945 0 0 1 381.018 41.663 A 31.825 31.825 0 0 1 381.9 38.2 A 27.462 27.462 0 0 1 384.365 32.583 A 23.588 23.588 0 0 1 386.35 29.7 Q 389.25 26.1 393.3 24.075 A 19.287 19.287 0 0 1 400.163 22.154 A 23.617 23.617 0 0 1 402.4 22.05 A 22.578 22.578 0 0 1 405.687 22.277 Q 407.499 22.544 409.026 23.125 A 13.07 13.07 0 0 1 409.75 23.425 Q 412.8 24.8 415.2 27.1 L 415.2 0 L 427.55 0 L 427.55 74.3 Z M 13.45 2 L 13.45 63.2 L 42.4 63.2 L 42.4 74.3 L 0 74.3 L 0 2 L 13.45 2 Z M 91.2 41.9 L 91.2 74.3 L 85.65 74.3 A 9.508 9.508 0 0 1 84.629 74.249 Q 84.113 74.193 83.683 74.076 A 3.867 3.867 0 0 1 82.9 73.775 Q 82.119 73.365 81.643 72.299 A 5.928 5.928 0 0 1 81.4 71.65 L 80.3 68 A 45.627 45.627 0 0 1 77.892 70.021 A 37.406 37.406 0 0 1 76.475 71.075 Q 74.6 72.4 72.6 73.3 Q 70.6 74.2 68.35 74.65 A 22.648 22.648 0 0 1 65.7 75.011 A 29.756 29.756 0 0 1 63.35 75.1 A 21.138 21.138 0 0 1 59.529 74.767 A 17.749 17.749 0 0 1 57.35 74.225 Q 54.6 73.35 52.625 71.6 A 11.807 11.807 0 0 1 49.727 67.651 A 13.769 13.769 0 0 1 49.55 67.25 A 13.529 13.529 0 0 1 48.661 64.062 A 18.486 18.486 0 0 1 48.45 61.2 Q 48.45 58.3 49.975 55.475 A 11.7 11.7 0 0 1 51.996 52.797 Q 53.268 51.517 55.05 50.375 Q 57.755 48.642 61.824 47.358 A 49.221 49.221 0 0 1 64.5 46.6 A 47.147 47.147 0 0 1 69.326 45.658 Q 71.98 45.272 75.047 45.075 A 99.555 99.555 0 0 1 79.15 44.9 L 79.15 41.9 A 19.42 19.42 0 0 0 78.968 39.146 Q 78.766 37.736 78.337 36.604 A 7.512 7.512 0 0 0 76.975 34.275 A 7 7 0 0 0 73.324 32.106 Q 72.185 31.819 70.831 31.801 A 13.702 13.702 0 0 0 70.65 31.8 A 21.259 21.259 0 0 0 68.546 31.898 Q 67.518 32 66.644 32.21 A 10.222 10.222 0 0 0 65.65 32.5 A 22.788 22.788 0 0 0 63.836 33.219 Q 62.943 33.621 62.187 34.068 A 14.279 14.279 0 0 0 62.175 34.075 A 145.102 145.102 0 0 1 60.756 34.906 A 110.837 110.837 0 0 1 59.45 35.65 Q 58.2 36.35 56.7 36.35 A 4.019 4.019 0 0 1 55.572 36.198 A 3.314 3.314 0 0 1 54.55 35.7 Q 53.65 35.05 53.1 34.1 L 50.85 30.15 Q 59.7 22.05 72.2 22.05 A 23.529 23.529 0 0 1 76.456 22.419 A 18.306 18.306 0 0 1 80.225 23.525 Q 83.75 25 86.2 27.625 A 17.305 17.305 0 0 1 89.632 33.114 A 20.167 20.167 0 0 1 89.925 33.9 Q 91.2 37.55 91.2 41.9 Z M 106.35 60.9 L 106.35 32.25 L 101.15 32.25 Q 100.15 32.25 99.425 31.6 A 2.056 2.056 0 0 1 98.831 30.639 Q 98.733 30.312 98.708 29.919 A 4.306 4.306 0 0 1 98.7 29.65 L 98.7 24.75 L 106.95 23.4 L 109.55 9.4 Q 109.75 8.4 110.475 7.85 A 2.646 2.646 0 0 1 111.573 7.368 A 3.71 3.71 0 0 1 112.3 7.3 L 118.7 7.3 L 118.7 23.45 L 132.2 23.45 L 132.2 32.25 L 118.7 32.25 L 118.7 60.05 Q 118.7 62.45 119.9 63.8 A 3.958 3.958 0 0 0 122.613 65.129 A 5.51 5.51 0 0 0 123.1 65.15 A 7.984 7.984 0 0 0 123.91 65.111 Q 124.541 65.047 125.025 64.875 A 12.775 12.775 0 0 0 125.708 64.612 Q 126.024 64.478 126.298 64.34 A 7.522 7.522 0 0 0 126.375 64.3 A 20.405 20.405 0 0 0 126.919 64.006 A 14.969 14.969 0 0 0 127.4 63.725 A 1.99 1.99 0 0 1 127.818 63.529 A 1.542 1.542 0 0 1 128.3 63.45 Q 128.85 63.45 129.2 63.725 A 2.744 2.744 0 0 1 129.458 63.958 Q 129.587 64.089 129.722 64.254 A 6.464 6.464 0 0 1 129.95 64.55 L 133.65 70.55 Q 130.95 72.8 127.45 73.95 Q 123.95 75.1 120.2 75.1 A 18.75 18.75 0 0 1 116.076 74.674 Q 113.304 74.049 111.272 72.507 A 11.085 11.085 0 0 1 109.95 71.325 Q 106.528 67.736 106.359 61.549 A 23.798 23.798 0 0 1 106.35 60.9 Z M 357.6 0 L 369.95 0 L 369.95 74.3 L 357.6 74.3 L 357.6 0 Z M 170.079 22.785 A 30.874 30.874 0 0 0 163.95 22.2 A 32.919 32.919 0 0 0 160.459 22.381 A 26.616 26.616 0 0 0 153.5 24.05 A 25.967 25.967 0 0 0 153.062 24.227 A 22.565 22.565 0 0 0 145.475 29.3 A 21.621 21.621 0 0 0 143.279 31.937 A 24.65 24.65 0 0 0 140.325 37.6 A 27.788 27.788 0 0 0 139.046 42.277 A 34.619 34.619 0 0 0 138.5 48.55 A 36.638 36.638 0 0 0 138.757 52.956 A 28.726 28.726 0 0 0 140.325 59.55 A 27.536 27.536 0 0 0 140.964 61.119 A 23.303 23.303 0 0 0 145.475 67.9 A 21.784 21.784 0 0 0 145.896 68.325 A 22.442 22.442 0 0 0 153.5 73.2 A 25.537 25.537 0 0 0 157.813 74.465 A 30.993 30.993 0 0 0 163.95 75.05 A 32.784 32.784 0 0 0 167.523 74.86 A 26.334 26.334 0 0 0 174.375 73.2 A 25.404 25.404 0 0 0 174.412 73.186 A 22.147 22.147 0 0 0 182.35 67.9 A 22.092 22.092 0 0 0 184.442 65.357 A 24.94 24.94 0 0 0 187.45 59.55 Q 189.25 54.65 189.25 48.55 A 36.832 36.832 0 0 0 189.018 44.35 A 29.147 29.147 0 0 0 187.45 37.6 A 26.929 26.929 0 0 0 186.657 35.671 A 22.518 22.518 0 0 0 182.35 29.3 Q 179.05 25.9 174.375 24.05 A 25.259 25.259 0 0 0 170.079 22.785 Z M 327.979 22.785 A 30.874 30.874 0 0 0 321.85 22.2 A 32.919 32.919 0 0 0 318.359 22.381 A 26.616 26.616 0 0 0 311.4 24.05 A 25.967 25.967 0 0 0 310.962 24.227 A 22.565 22.565 0 0 0 303.375 29.3 A 21.621 21.621 0 0 0 301.179 31.937 A 24.65 24.65 0 0 0 298.225 37.6 A 27.788 27.788 0 0 0 296.946 42.277 A 34.619 34.619 0 0 0 296.4 48.55 A 36.638 36.638 0 0 0 296.657 52.956 A 28.726 28.726 0 0 0 298.225 59.55 A 27.536 27.536 0 0 0 298.864 61.119 A 23.303 23.303 0 0 0 303.375 67.9 A 21.784 21.784 0 0 0 303.796 68.325 A 22.442 22.442 0 0 0 311.4 73.2 A 25.537 25.537 0 0 0 315.713 74.465 A 30.993 30.993 0 0 0 321.85 75.05 A 32.784 32.784 0 0 0 325.423 74.86 A 26.334 26.334 0 0 0 332.275 73.2 A 25.404 25.404 0 0 0 332.312 73.186 A 22.147 22.147 0 0 0 340.25 67.9 A 22.092 22.092 0 0 0 342.342 65.357 A 24.94 24.94 0 0 0 345.35 59.55 Q 347.15 54.65 347.15 48.55 A 36.832 36.832 0 0 0 346.918 44.35 A 29.147 29.147 0 0 0 345.35 37.6 A 26.929 26.929 0 0 0 344.557 35.671 A 22.518 22.518 0 0 0 340.25 29.3 Q 336.95 25.9 332.275 24.05 A 25.259 25.259 0 0 0 327.979 22.785 Z M 163.95 65.55 A 15.023 15.023 0 0 0 167.709 65.109 A 9.803 9.803 0 0 0 173.425 61.25 Q 175.622 58.178 176.249 53.065 A 36.341 36.341 0 0 0 176.5 48.65 A 35.938 35.938 0 0 0 176.215 43.959 Q 175.563 39.025 173.425 36 Q 170.35 31.65 163.95 31.65 A 15.287 15.287 0 0 0 160.22 32.077 A 9.901 9.901 0 0 0 154.35 36.025 A 14.694 14.694 0 0 0 152.357 40.173 Q 151.25 43.719 151.25 48.65 A 35.23 35.23 0 0 0 151.538 53.313 Q 151.846 55.612 152.483 57.494 A 14.143 14.143 0 0 0 154.35 61.225 A 9.995 9.995 0 0 0 160.65 65.227 A 15.89 15.89 0 0 0 163.95 65.55 Z M 321.85 65.55 A 15.023 15.023 0 0 0 325.609 65.109 A 9.803 9.803 0 0 0 331.325 61.25 Q 333.522 58.178 334.149 53.065 A 36.341 36.341 0 0 0 334.4 48.65 A 35.938 35.938 0 0 0 334.115 43.959 Q 333.463 39.025 331.325 36 Q 328.25 31.65 321.85 31.65 A 15.287 15.287 0 0 0 318.12 32.077 A 9.901 9.901 0 0 0 312.25 36.025 A 14.694 14.694 0 0 0 310.257 40.173 Q 309.15 43.719 309.15 48.65 A 35.23 35.23 0 0 0 309.438 53.313 Q 309.746 55.612 310.383 57.494 A 14.143 14.143 0 0 0 312.25 61.225 A 9.995 9.995 0 0 0 318.55 65.227 A 15.89 15.89 0 0 0 321.85 65.55 Z M 415.2 59.1 L 415.2 36.1 A 14.73 14.73 0 0 0 413.291 34.156 A 10.624 10.624 0 0 0 410.625 32.5 A 13.436 13.436 0 0 0 405.522 31.452 A 15.355 15.355 0 0 0 405.3 31.45 A 12.892 12.892 0 0 0 402.18 31.815 A 10.971 10.971 0 0 0 400.225 32.5 A 9.891 9.891 0 0 0 396.474 35.543 A 11.544 11.544 0 0 0 396.375 35.675 Q 394.8 37.8 393.95 41.075 A 24.547 24.547 0 0 0 393.369 44.166 Q 393.167 45.764 393.117 47.572 A 44.057 44.057 0 0 0 393.1 48.8 A 46.844 46.844 0 0 0 393.202 51.982 Q 393.308 53.538 393.525 54.885 A 23 23 0 0 0 393.825 56.425 Q 394.55 59.55 395.9 61.525 Q 397.25 63.5 399.2 64.375 A 10.03 10.03 0 0 0 402.342 65.192 A 12.282 12.282 0 0 0 403.55 65.25 Q 407.4 65.25 410.1 63.65 A 17.154 17.154 0 0 0 413.043 61.423 A 23.073 23.073 0 0 0 415.2 59.1 Z M 262.55 42.6 L 248.95 42.6 L 248.95 63.8 L 262.6 63.8 A 25.933 25.933 0 0 0 265.24 63.673 Q 266.526 63.542 267.624 63.272 A 12.795 12.795 0 0 0 268.875 62.9 A 13.385 13.385 0 0 0 270.877 62.007 Q 271.969 61.401 272.788 60.632 A 8.182 8.182 0 0 0 272.925 60.5 Q 274.45 59 275.125 57 A 13.103 13.103 0 0 0 275.797 53.065 A 14.827 14.827 0 0 0 275.8 52.75 A 12.651 12.651 0 0 0 275.588 50.387 A 10.052 10.052 0 0 0 275.05 48.525 Q 274.3 46.65 272.7 45.325 A 9.399 9.399 0 0 0 270.746 44.094 Q 269.833 43.657 268.746 43.342 A 15.776 15.776 0 0 0 268.6 43.3 Q 266.552 42.726 263.798 42.623 A 33.211 33.211 0 0 0 262.55 42.6 Z M 248.95 12.4 L 248.95 33.3 L 259.7 33.3 A 30.19 30.19 0 0 0 263.476 33.08 Q 267.604 32.558 270.1 30.8 Q 273.633 28.312 273.65 22.903 A 16.715 16.715 0 0 0 273.65 22.85 Q 273.65 19.326 272.405 17.066 A 7.039 7.039 0 0 0 270.45 14.8 A 9.932 9.932 0 0 0 267.685 13.385 Q 264.806 12.4 260.45 12.4 L 248.95 12.4 Z M 197.3 49.25 L 197.3 38.95 L 223.2 38.95 L 223.2 49.25 L 197.3 49.25 Z M 79.15 61.05 L 79.15 52.4 Q 73.75 52.65 70.125 53.325 Q 67.578 53.799 65.734 54.459 A 15.29 15.29 0 0 0 64.3 55.05 A 11.158 11.158 0 0 0 62.966 55.795 Q 61.789 56.57 61.175 57.5 Q 60.25 58.9 60.25 60.55 Q 60.25 62.68 61.077 64.015 A 4.155 4.155 0 0 0 62.175 65.2 A 6.935 6.935 0 0 0 64.552 66.292 Q 65.747 66.6 67.2 66.6 Q 69.1 66.6 70.7 66.25 Q 72.3 65.9 73.725 65.2 Q 75.15 64.5 76.475 63.475 A 22.791 22.791 0 0 0 78.057 62.126 A 28.522 28.522 0 0 0 79.15 61.05 Z"
            vector-effect="non-scaling-stroke" />
    </g>
</svg>